<svg width="35" height="37" viewBox="0 0 35 37" fill="none" xmlns="http://www.w3.org/2000/svg">
<path d="M26.9928 2.54659C26.1095 2.72923 25.1974 2.72053 24.3177 2.52111C35.4307 7.72211 37.265 19.8824 29.2014 28.9306C22.0757 36.6836 10.1412 38.2517 0.284426 35.9929C0.248047 35.9841 0.213893 35.9679 0.184125 35.9452C0.154357 35.9225 0.129624 35.8939 0.111499 35.8611C0.0933745 35.8284 0.0822507 35.7922 0.078833 35.755C0.0754153 35.7177 0.07978 35.6801 0.0916472 35.6446C0.111643 35.5841 0.152276 35.5325 0.206448 35.4989C0.260619 35.4652 0.324882 35.4517 0.388008 35.4607C9.82239 36.8091 21.0261 34.9816 27.3916 27.4222C33.6147 19.0805 31.5361 9.66577 23.8571 3.12316C24.1615 4.43986 24.1859 5.80581 23.9287 7.13252C23.924 7.15761 23.9109 7.18033 23.8915 7.19683C23.872 7.21333 23.8475 7.2226 23.822 7.22306C23.7965 7.22353 23.7716 7.21517 23.7516 7.19939C23.7315 7.18361 23.7176 7.16138 23.7121 7.13649C23.2965 5.42984 22.9066 3.82062 22.0732 2.00972C21.5686 0.917368 21.4151 0.473244 22.7262 0.958859C24.3187 1.54866 26.0641 2.19514 27.7861 1.9705C27.8205 1.9682 27.8545 1.97769 27.8827 1.99741C27.9109 2.01713 27.9315 2.0459 27.9411 2.07893C27.9507 2.11195 27.9487 2.14727 27.9355 2.17902C27.9223 2.21078 27.8986 2.23706 27.8684 2.25351C27.5894 2.38611 27.2954 2.48452 26.9928 2.54659Z" fill="white"/>
</svg>
